<?xml version="1.0" encoding="UTF-8" standalone="no"?>
<svg
   xmlns:dc="http://purl.org/dc/elements/1.1/"
   xmlns:cc="http://creativecommons.org/ns#"
   xmlns:rdf="http://www.w3.org/1999/02/22-rdf-syntax-ns#"
   xmlns:svg="http://www.w3.org/2000/svg"
   xmlns="http://www.w3.org/2000/svg"
   xmlns:xlink="http://www.w3.org/1999/xlink"
   xmlns:sodipodi="http://sodipodi.sourceforge.net/DTD/sodipodi-0.dtd"
   xmlns:inkscape="http://www.inkscape.org/namespaces/inkscape"
   width="128"
   height="128"
   viewBox="0 0 33.866666 33.866666"
   version="1.1"
   id="svg8"
   inkscape:version="1.0.1 (3bc2e813f5, 2020-09-07)"
   sodipodi:docname="logo.svg"
   inkscape:export-filename="/home/gudenau/projects/java/minecraft/gudASM2/logo.png"
   inkscape:export-xdpi="3072"
   inkscape:export-ydpi="3072">
  <defs
     id="defs2">
    <linearGradient
       inkscape:collect="always"
       id="linearGradient996">
      <stop
         style="stop-color:#ff00ff;stop-opacity:1;"
         offset="0"
         id="stop992" />
      <stop
         style="stop-color:#ff00ff;stop-opacity:0;"
         offset="1"
         id="stop994" />
    </linearGradient>
    <linearGradient
       inkscape:collect="always"
       xlink:href="#linearGradient996"
       id="linearGradient998"
       x1="2.8722781"
       y1="16.93335"
       x2="30.994388"
       y2="16.93335"
       gradientUnits="userSpaceOnUse" />
  </defs>
  <sodipodi:namedview
     id="base"
     pagecolor="#ffffff"
     bordercolor="#666666"
     borderopacity="1.0"
     inkscape:pageopacity="1"
     inkscape:pageshadow="2"
     inkscape:zoom="5.6"
     inkscape:cx="53.087694"
     inkscape:cy="72.941376"
     inkscape:document-units="px"
     inkscape:current-layer="layer1"
     inkscape:document-rotation="0"
     showgrid="false"
     units="px"
     inkscape:window-width="1920"
     inkscape:window-height="1056"
     inkscape:window-x="1920"
     inkscape:window-y="0"
     inkscape:window-maximized="1" />
  <metadata
     id="metadata5">
    <rdf:RDF>
      <cc:Work
         rdf:about="">
        <dc:format>image/svg+xml</dc:format>
        <dc:type
           rdf:resource="http://purl.org/dc/dcmitype/StillImage" />
        <dc:title></dc:title>
      </cc:Work>
    </rdf:RDF>
  </metadata>
  <g
     inkscape:label="Layer 1"
     inkscape:groupmode="layer"
     id="layer1">
    <path
       id="rect833-2-1"
       style="fill:#008c00;fill-opacity:1;stroke:#000000;stroke-width:0.26458333;stroke-linejoin:round;stroke-miterlimit:4;stroke-dasharray:none;stroke-opacity:1"
       d="M 1.0583333,32.808333 H 15.875001 v -4.62194 a 3.4395833,3.4395872 0 0 1 -1.5875,0.388607 3.4395833,3.4395872 0 0 1 -3.439583,-3.439583 3.4395833,3.4395872 0 0 1 3.439583,-3.439584 3.4395833,3.4395872 0 0 1 1.5875,0.388608 v -4.119128 h -4.546492 a 3.1749999,3.1749999 0 0 0 0.577741,-1.82573 3.1749999,3.1749999 0 0 0 -3.1749988,-3.175 3.1749999,3.1749999 0 0 0 -3.175,3.175 3.1749999,3.1749999 0 0 0 0.577742,1.82573 H 1.0583333 Z" />
    <path
       id="rect833-9"
       style="fill:#007800;fill-opacity:1;stroke:#000000;stroke-width:0.26458333;stroke-linejoin:round;stroke-miterlimit:4;stroke-dasharray:none;stroke-opacity:1"
       d="M 32.808333,32.808332 V 17.991666 h -4.62194 a 3.4395871,3.4395833 0 0 1 0.388607,1.5875 3.4395871,3.4395833 0 0 1 -3.439584,3.439583 3.4395871,3.4395833 0 0 1 -3.439583,-3.439583 3.4395871,3.4395833 0 0 1 0.388607,-1.5875 h -4.119128 v 4.546492 a 3.1749998,3.1749999 0 0 0 -1.825729,-0.577742 3.1749998,3.1749999 0 0 0 -3.175,3.175 3.1749998,3.1749999 0 0 0 3.175,3.174999 3.1749998,3.1749999 0 0 0 1.825729,-0.577742 v 5.075659 z" />
    <path
       id="rect833-2"
       style="fill:#006400;fill-opacity:1;stroke:#000000;stroke-width:0.26458333;stroke-linejoin:round;stroke-miterlimit:4;stroke-dasharray:none;stroke-opacity:1"
       d="M 32.808332,1.0583333 H 17.991666 v 4.62194 a 3.4395834,3.4395872 0 0 1 1.5875,-0.3886068 3.4395834,3.4395872 0 0 1 3.439583,3.4395831 3.4395834,3.4395872 0 0 1 -3.439583,3.4395834 3.4395834,3.4395872 0 0 1 -1.5875,-0.388607 v 4.119128 h 4.546492 a 3.175,3.1749999 0 0 0 -0.577742,1.825729 3.175,3.1749999 0 0 0 3.174999,3.175 3.175,3.1749999 0 0 0 3.175,-3.175 3.175,3.1749999 0 0 0 -0.577742,-1.825729 h 5.075659 z" />
    <path
       id="rect833"
       style="fill:#ffffff;fill-opacity:1;stroke:#000000;stroke-width:0.99999999;stroke-linejoin:round;stroke-miterlimit:4;stroke-dasharray:none;stroke-opacity:1"
       d="M 4 4 L 4 60 L 21.46875 60 A 13.000015 13 0 0 1 20 54 A 13.000015 13 0 0 1 33 41 A 13.000015 13 0 0 1 46 54 A 13.000015 13 0 0 1 44.53125 60 L 60.099609 60 L 60.099609 42.816406 A 12 12 0 0 0 67 45 A 12 12 0 0 0 79 33 A 12 12 0 0 0 67 21 A 12 12 0 0 0 60.099609 23.183594 L 60.099609 4 L 4 4 z "
       transform="scale(0.26458333)" />
    <path
       id="rect833-2-1-2"
       style="fill:#008c00;fill-opacity:1;stroke:#000000;stroke-width:0.26458333;stroke-linejoin:round;stroke-miterlimit:4;stroke-dasharray:none;stroke-opacity:1;stroke-linecap:round"
       d="m 11.328509,17.965313 c 0.375892,-0.534612 0.577652,-1.172197 0.577741,-1.82573 0,-1.753504 -1.421495,-3.174999 -3.1749989,-3.175 -1.7535041,0 -3.1750001,1.421496 -3.175,3.175 8.94e-5,0.653533 0.2018495,1.291118 0.5777421,1.82573"
       sodipodi:nodetypes="ccscc" />
    <rect
       style="fill:#000000;fill-opacity:0.2;stroke:none;stroke-width:0.264583;stroke-linecap:round;stroke-linejoin:round;stroke-miterlimit:4;stroke-dasharray:none;stroke-opacity:1"
       id="rect984"
       width="33.866665"
       height="33.866665"
       x="-0.03701555"
       y="0.046629906" />
    <text
       xml:space="preserve"
       style="font-style:normal;font-variant:normal;font-weight:bold;font-stretch:normal;font-size:15.2325px;line-height:0;font-family:'Courier New';-inkscape-font-specification:'Courier New Bold';letter-spacing:0px;word-spacing:0px;stroke-width:0.380812;stroke-miterlimit:4;stroke-dasharray:none;fill:#ff00ff;fill-opacity:1;"
       x="16.925896"
       y="12.124848"
       id="text988"><tspan
         sodipodi:role="line"
         id="tspan986"
         x="16.925896"
         y="12.124848"
         style="font-style:normal;font-variant:normal;font-weight:bold;font-stretch:normal;line-height:1.25;font-family:'Courier New';-inkscape-font-specification:'Courier New Bold';text-align:center;text-anchor:middle;fill:#ff00ff;fill-opacity:1;stroke:#000000;stroke-width:0.380812;stroke-miterlimit:4;stroke-dasharray:none;stroke-opacity:1;">gud</tspan><tspan
         sodipodi:role="line"
         x="16.925896"
         y="31.165459"
         style="font-style:normal;font-variant:normal;font-weight:bold;font-stretch:normal;line-height:1.25;font-family:'Courier New';-inkscape-font-specification:'Courier New Bold';text-align:center;text-anchor:middle;fill:#ff00ff;fill-opacity:1;stroke:#000000;stroke-width:0.380812;stroke-miterlimit:4;stroke-dasharray:none;stroke-opacity:1;"
         id="tspan990">ASM</tspan></text>
  </g>
</svg>
